<svg width="24" height="24" viewBox="0 0 24 24" fill="none" xmlns="http://www.w3.org/2000/svg">
<path d="M20.149 20.8327H3.8503C2.87488 20.8314 1.93979 20.4433 1.25012 19.7535C0.560457 19.0637 0.172536 18.1286 0.171448 17.1531V6.84617C0.172537 5.87081 0.560479 4.93571 1.25016 4.24603C1.93985 3.55634 2.87495 3.1684 3.8503 3.16731H20.149C21.1245 3.1684 22.0596 3.55632 22.7494 4.24599C23.4392 4.93565 23.8273 5.87075 23.8286 6.84617V17.1531C23.8275 18.1287 23.4395 19.064 22.7497 19.7538C22.0599 20.4436 21.1246 20.8316 20.149 20.8327ZM3.8503 4.8816C3.32944 4.88214 2.83006 5.0893 2.46174 5.45761C2.09343 5.82592 1.88628 6.3253 1.88573 6.84617V17.1531C1.8861 17.6741 2.09317 18.1737 2.4615 18.5421C2.82983 18.9106 3.32932 19.1179 3.8503 19.1184H20.149C20.6701 19.1179 21.1697 18.9106 21.5381 18.5422C21.9065 18.1737 22.1138 17.6742 22.1143 17.1531V6.84617C22.1136 6.32524 21.9063 5.82586 21.5379 5.45757C21.1694 5.08928 20.67 4.88214 20.149 4.8816H3.8503Z" fill="white"/>
<path d="M11.9904 14.3074C11.2712 14.3145 10.5706 14.079 10.0018 13.6389L0.835194 6.33394C0.657423 6.19218 0.543248 5.9856 0.517786 5.75966C0.492323 5.53371 0.55766 5.30691 0.699422 5.12914C0.841184 4.95137 1.04776 4.83719 1.2737 4.81173C1.49965 4.78627 1.72645 4.85161 1.90422 4.99337L11.0681 12.2983C11.3388 12.4903 11.6627 12.593 11.9946 12.5922C12.3265 12.5913 12.6498 12.4869 12.9195 12.2935L21.9703 4.9968C22.1471 4.85412 22.3734 4.78755 22.5994 4.81173C22.8253 4.83591 23.0324 4.94885 23.1751 5.12571C23.3178 5.30257 23.3843 5.52887 23.3601 5.75481C23.336 5.98075 23.223 6.18784 23.0462 6.33051L13.9982 13.6272C13.4254 14.0751 12.7174 14.3149 11.9904 14.3074Z" fill="white"/>
</svg>
