<svg width="24" height="24" viewBox="0 0 24 24" fill="none" xmlns="http://www.w3.org/2000/svg">
<path d="M12 12C14.8406 12 17.1429 9.69776 17.1429 6.85714C17.1429 4.01651 14.8406 1.71428 12 1.71428C9.15938 1.71428 6.85714 4.01651 6.85714 6.85714C6.85714 9.69776 9.15938 12 12 12ZM15.8491 13.3098L13.9286 21L12.6429 15.5357L13.9286 13.2857H10.0714L11.3571 15.5357L10.0714 21L8.15089 13.3098C5.28616 13.4464 3 15.7888 3 18.6857V20.3571C3 21.4219 3.86384 22.2857 4.92857 22.2857H19.0714C20.1362 22.2857 21 21.4219 21 20.3571V18.6857C21 15.7888 18.7138 13.4464 15.8491 13.3098Z" fill="white"/>
</svg>
